<svg width="101" height="81" viewBox="0 0 101 81" fill="none" xmlns="http://www.w3.org/2000/svg">
<path d="M100.365 0.390106H0.365402V80.3884H100.365V0.390106Z" fill="#333237"/>
<path d="M7.49489 41.8682L31.1413 41.8752L26.8425 69.4463L7.49489 41.8682Z" fill="white"/>
<path d="M7.49489 41.8682L31.1413 41.8752L26.8425 69.4463L7.49489 41.8682Z" stroke="#0058A0" stroke-width="0.006"/>
<path d="M39.2953 10.718L35.2136 37.8172H58.4502L39.2953 10.718Z" fill="white"/>
<path d="M39.2953 10.718L35.2136 37.8172H58.4502L39.2953 10.718Z" stroke="#0058A0" stroke-width="0.006"/>
<path d="M79.4655 42.0348L73.906 42.0313L71.1079 60.3641C70.9831 60.4803 70.6466 63.9987 68.0928 63.7263C65.007 63.4002 65.9718 59.5313 65.9718 59.5313L68.432 42.0226L62.9729 42.0331L60.2278 60.4491C60.2278 60.4491 58.5072 69.3786 67.5839 70.057C67.5839 70.057 75.2399 71.4519 76.9456 59.5018C78.7517 46.8335 79.4655 42.0348 79.4655 42.0348Z" fill="white"/>
<path d="M77.4219 60.3762C77.4219 60.3762 75.111 69.481 84.379 70.0206C84.379 70.0206 92.1395 69.8332 92.1205 61.0268C92.1205 61.0268 92.7135 55.8117 86.1811 52.2586C86.1811 52.2586 84.8078 51.4779 84.7318 49.7152C84.6559 47.9526 86.1282 47.6212 86.1282 47.6212C86.1282 47.6212 87.1377 47.2742 87.6832 48.0532C88.0754 48.6153 88.0184 50.7597 88.0184 50.7597H93.1925C93.1925 50.7597 95.2184 41.641 86.8189 41.5265C86.8189 41.5265 80.5782 41.032 79.228 48.8183C79.228 48.8183 78.3636 53.4436 81.2377 55.829C84.109 58.218 84.7033 58.2857 85.7523 59.2381C86.7985 60.1923 86.9098 63.742 84.7481 63.9207C82.3137 64.1219 82.8185 60.3832 82.7724 60.3832L77.4219 60.3762Z" fill="white"/>
<path d="M8.07838 37.8329L35.6356 10.4682L31.6461 37.8467L8.07838 37.8329Z" fill="white"/>
<path d="M51.2257 41.8856L56.853 41.8787L53.7415 63.0237L59.6782 63.0376L58.7691 69.3631L47.1087 69.3665L51.2257 41.8856Z" fill="white"/>
<path d="M39.2071 48.4661L38.3291 54.4567H40.3782C43.8927 54.3717 43.757 51.1188 43.757 51.1188C43.51 48.4088 41.347 48.4661 41.347 48.4661H39.2071ZM34.55 41.8717L41.7894 41.8995C41.7894 41.8995 47.0069 42.1268 48.6678 46.785C50.3274 51.4449 48.0355 56.5178 47.6189 56.9238C47.2023 57.3297 45.6785 61.7867 37.2856 61.1795L35.8988 69.6163L30.4045 69.6198L34.55 41.8717Z" fill="white"/>
</svg>
